# xmcd
#
# Track frame offsets:
#	182
#	18265
#	34980
#	59172
#	75327
#	93835
#	106572
#	119210
#	132582
#	148692
#	169385
#	183860
#	196237
#	208005
#	226115
#	237347
#	249872
#	268605
#	286020
#	293830
#	311965
#	327420
#
# Disc length: 4625 seconds
#
# Revision: 5
# Processed by: cddbd v1.5.2PL0 Copyright (c) Steve Scherf et al.
# Submitted via: EZCDAudioConverter 4.0.5.1
#
DISCID=40120f16
DTITLE=Hank Williams, Jr. - The Bocephus Box: The Hank Williams Jr. Collection
DTITLE=1979-1999
DYEAR=2000
DGENRE=Country
TTITLE0=All My Rowdy Friends (Have Settled Down) (alt ver)
TTITLE1=I've Been Down
TTITLE2=La Grange
TTITLE3=Leave Them Boys Alone
TTITLE4=Blue Jean Blues
TTITLE5=Midnight Rider
TTITLE6=Now I Know How George Feels (alt ver)
TTITLE7=All My Rowdy Friends Are Coming Over Tonight
TTITLE8=Major Moves
TTITLE9=Ain't Misbehavin'
TTITLE10=Lawyers, Guns And Money
TTITLE11=This Ain't Dallas
TTITLE12=Two Old Cats Like Us
TTITLE13=Country State Of Mind
TTITLE14=Mind Your Own Business
TTITLE15=Secret Agent Man
TTITLE16=Wild Dogs
TTITLE17=My Name Is Bocephus
TTITLE18=Workin' For MCA
TTITLE19=I Really Like Girls - Rock And Roll Music
TTITLE20=House Of The Rising Sun
TTITLE21=The Blues Man
EXTD=
EXTT0=
EXTT1=
EXTT2=
EXTT3=
EXTT4=
EXTT5=
EXTT6=
EXTT7=
EXTT8=
EXTT9=
EXTT10=
EXTT11=
EXTT12=
EXTT13=
EXTT14=
EXTT15=
EXTT16=
EXTT17=
EXTT18=
EXTT19=
EXTT20=
EXTT21=
PLAYORDER=
